<svg viewBox="0 0 270 48" xmlns="http://www.w3.org/2000/svg"><path d="m4.5 10.8-3.8 10c-.9 2.5-.9 5.2.2 7.6l4.4 9.8c1.1 2.4 3.1 4.3 5.5 5.2l10.1 3.9c2.5.9 5.2.9 7.6-.2l9.8-4.4c2.4-1.1 4.3-3.1 5.2-5.5l3.9-10.1c.9-2.5.9-5.2-.2-7.6l-4.4-9.8c-1.1-2.4-3.1-4.3-5.5-5.2l-10.1-3.8c-2.5-.9-5.2-.9-7.6.2l-9.8 4.3c-2.5 1.1-4.3 3.1-5.3 5.6z" fill="#dc2626"/><path d="m5.543 15.394 27.063-9.85 9.85 27.063-27.063 9.85z" fill="#991b1b"/><path d="m7.318 12.32 28.362-5 5 28.362-28.362 5z" fill="#374151"/><path d="m74.1 30.7h8v3.9h-12.1v-20.7h4.1zm21.2-10.9h3.9v14.8h-3.9v-1.7c-1.1 1.3-2.7 2.2-4.9 2.2-4 0-7.3-3.4-7.3-7.8s3.3-7.8 7.3-7.8c2.2 0 3.8.8 4.9 2.2zm0 7.4c0-2.5-1.8-4.2-4.2-4.2s-4.1 1.7-4.1 4.2 1.8 4.2 4.1 4.2c2.5 0 4.2-1.7 4.2-4.2zm11.2-4.9v-2.5h-3.9v14.8h3.9v-7.1c0-3.1 2.5-4 4.5-3.8v-4.3c-1.8.1-3.7.9-4.5 2.9zm17.6-2.5h3.9v14.8h-3.9v-1.7c-1.1 1.3-2.7 2.2-4.9 2.2-4 0-7.3-3.4-7.3-7.8s3.3-7.8 7.3-7.8c2.2 0 3.8.8 4.9 2.2zm0 7.4c0-2.5-1.8-4.2-4.2-4.2s-4.1 1.7-4.1 4.2 1.8 4.2 4.1 4.2c2.4 0 4.2-1.7 4.2-4.2zm13.5 3-3.6-10.4h-4.2l5.7 14.8h4.4l5.7-14.8h-4.2zm23.9-3c0 .6-.1 1.1-.1 1.6h-11.4c.5 2 2.2 2.8 4.2 2.8 1.5 0 2.7-.6 3.3-1.5l3.1 1.8c-1.4 2-3.6 3.2-6.5 3.2-5 0-8.2-3.4-8.2-7.8s3.2-7.8 7.9-7.8c4.5-.1 7.7 3.3 7.7 7.7zm-3.9-1.4c-.5-2.1-2.1-3-3.7-3-2.1 0-3.5 1.1-3.9 3zm6.5-12.8v21.6h3.9v-21.6zm54.3 6.8h4.3v1.4h-4.3v8.6c0 1.2.2 2 .7 2.4.4.4 1.1.7 2 .7.5 0 1.1-.1 1.6-.3v1.6c-.6.2-1.3.2-1.9.2-1.3 0-2.3-.4-3-1.1s-1.1-1.8-1.1-3.2v-8.9h-2.9v-1.4h2.9v-3.8l1.8-.7v4.5zm-10.7 1.2c.7 0 1.5.1 2.1.4s1.4.7 2.2 1.3l.7-1.4c-.6-.6-1.3-1.1-2.2-1.4s-1.8-.5-2.8-.5c-1.4 0-2.6.3-3.6.9s-1.9 1.5-2.4 2.7c-.6 1.1-.8 2.5-.8 4s.3 2.8.8 3.9c.6 1.1 1.4 2 2.4 2.6s2.2.9 3.6.9c1 0 1.9-.2 2.8-.5s1.7-.8 2.3-1.4l-.7-1.4c-.8.6-1.5 1-2.2 1.3s-1.4.4-2.1.4c-1.6 0-2.8-.5-3.7-1.6-.9-1-1.4-2.5-1.4-4.3 0-1.9.5-3.4 1.4-4.4.7-1 2-1.5 3.6-1.5zm-10.3-2.6c.7 1.6 1.1 3.4 1.1 5.6s-.4 4-1.1 5.6-1.8 2.8-3.2 3.6-3 1.3-4.9 1.3-3.5-.4-4.9-1.3c-1.4-.8-2.5-2.1-3.2-3.6-.7-1.6-1.1-3.4-1.1-5.6s.4-4 1.1-5.6 1.8-2.8 3.2-3.6 3-1.3 4.9-1.3 3.6.4 5 1.3 2.3 2 3.1 3.6zm-.8 5.5c0-2.8-.6-5-1.9-6.6-1.3-1.5-3.1-2.3-5.4-2.3s-4.1.8-5.4 2.3-1.9 3.7-1.9 6.6c0 2.8.6 5 1.9 6.6s3.1 2.4 5.4 2.4 4.1-.8 5.4-2.3c1.3-1.6 1.9-3.8 1.9-6.7zm62.3 2.9c0 2 .5 3.5 1.4 4.5s2.2 1.5 3.9 1.5 3.3-.6 4.8-1.8l.7 1.4c-.6.6-1.5 1.1-2.4 1.4-1 .4-2 .5-3.1.5-2.2 0-4-.7-5.2-2-1.3-1.3-1.9-3.2-1.9-5.5 0-1.5.3-2.8.9-3.9s1.4-2 2.4-2.7c1-.6 2.2-.9 3.6-.9 1.9 0 3.4.6 4.5 1.8s1.6 2.9 1.6 5.1v.4h-11.2zm.2-1.4h9.3c-.1-1.5-.6-2.6-1.3-3.4-.8-.8-1.8-1.2-3.1-1.2s-2.4.4-3.3 1.2c-.9.9-1.4 2-1.6 3.4zm-22.8-5.6h1.8v14.5h-1.8v-2.8c-.4 1-1.1 1.7-1.9 2.2-.9.5-1.9.8-3.1.8-1.3 0-2.4-.3-3.4-.9s-1.7-1.5-2.3-2.6c-.5-1.1-.8-2.4-.8-3.9s.3-2.8.8-4c.5-1.1 1.3-2 2.3-2.7 1-.6 2.1-.9 3.4-.9 1.2 0 2.2.3 3.1.8s1.5 1.2 2 2.2v-2.7zm0 7.1c0-1.9-.4-3.4-1.3-4.4-.8-1-2-1.6-3.6-1.6-1.5 0-2.7.5-3.6 1.6s-1.3 2.5-1.3 4.4.4 3.3 1.3 4.3 2.1 1.5 3.6 1.5 2.7-.5 3.5-1.6c1-.8 1.4-2.3 1.4-4.2zm12.8-7.5c-1.2 0-2.2.3-3.1.8s-1.6 1.3-2 2.2l-.2-2.7h-1.7c.2 1.2.2 2.5.2 4v10.4h1.7v-8.4c0-1.5.4-2.7 1.3-3.6s2.1-1.3 3.5-1.3c1.3 0 2.2.3 2.8 1s.9 1.7.9 3.2v9.1h1.8v-9.1c.1-3.7-1.7-5.6-5.2-5.6z" fill="#fff"/></svg>